<?xml version="1.0" encoding="UTF-8" standalone="no"?>
<!-- Created with Inkscape (http://www.inkscape.org/) -->

<svg
   width="210mm"
   height="297mm"
   viewBox="0 0 210 297"
   version="1.1"
   id="svg1"
   xmlns="http://www.w3.org/2000/svg"
   xmlns:svg="http://www.w3.org/2000/svg">
  <defs
     id="defs1" />
  <g
     id="layer1"
     style="display:none">
    <rect
       style="fill:#000000;stroke-width:0.264583"
       id="rect1"
       width="209.32472"
       height="298.46124"
       x="0.36531365"
       y="0" />
  </g>
  <g
     id="layer2">
    <g
       id="g11"
       transform="matrix(0.90286984,0,0,0.90286984,8.6318931,-5.0736438)"
       style="fill:#ffffff;fill-opacity:1;stroke:#000000;stroke-opacity:1">
      <path
         style="fill:#ffffff;fill-opacity:1;stroke:#000000;stroke-width:0.245122;stroke-opacity:1"
         id="path2"
         d="M 140.69006,47.315006 A 37.466808,35.99028 0 0 1 104.73913,83.275817 37.466808,35.99028 0 0 1 65.879106,50.224907 37.466808,35.99028 0 0 1 98.685531,11.589661 37.466808,35.99028 0 0 1 140.20021,41.514259" />
      <path
         style="fill:#ffffff;fill-opacity:1;stroke:#000000;stroke-width:0.0384938;stroke-opacity:1"
         id="path7"
         d="m 121.47597,33.956345 a 5.845017,5.689353 0 0 1 -5.60853,5.684694 5.845017,5.689353 0 0 1 -6.06237,-5.224697 5.845017,5.689353 0 0 1 5.11797,-6.107469 5.845017,5.689353 0 0 1 6.47651,4.730488" />
      <path
         style="fill:#ffffff;fill-opacity:1;stroke:#000000;stroke-width:0.0384938;stroke-opacity:1"
         id="path8"
         d="m 97.134278,33.956345 a 5.845017,5.689353 0 0 1 -5.608532,5.684694 5.845017,5.689353 0 0 1 -6.062366,-5.224697 5.845017,5.689353 0 0 1 5.117973,-6.107469 5.845017,5.689353 0 0 1 6.476506,4.730488" />
      <path
         style="fill:#ffffff;fill-opacity:1;stroke:#000000;stroke-width:0.264583;stroke-opacity:1"
         d="m 97.5142,45.076099 h 11.10757 l -5.55379,9.557684 -5.55378,-8.911895 z"
         id="path9" />
      <rect
         style="fill:#ffffff;fill-opacity:1;stroke:#000000;stroke-width:0.264583;stroke-opacity:1"
         id="rect10"
         width="23.506735"
         height="5.1663151"
         x="91.443779"
         y="62.899887" />
      <rect
         style="fill:#ffffff;fill-opacity:1;stroke:#000000;stroke-width:0.264583;stroke-opacity:1"
         id="rect11"
         width="30.093788"
         height="13.949051"
         x="87.181564"
         y="79.819565" />
      <path
         style="fill:#ffffff;fill-opacity:1;stroke:#000000;stroke-width:0.488156;stroke-opacity:1"
         d="m 329.50311,327.91864 -0.002,-26.48245 -6.46602,-3.26602 c -3.55632,-1.79632 -9.43158,-5.23533 -13.05614,-7.64225 -33.02481,-21.93047 -54.23994,-55.29083 -60.11738,-94.53338 -0.44005,-2.93811 -0.64628,-8.92098 -0.62259,-18.06176 0.0325,-12.54944 0.14051,-14.2478 1.31914,-20.74662 3.98573,-21.97693 12.02676,-40.40663 25.45188,-58.334617 5.21488,-6.963991 18.01413,-19.994993 24.69399,-25.141129 17.00316,-13.099149 36.8652,-22.492559 57.1643,-27.034869 24.56447,-5.496766 49.86204,-4.684678 73.66259,2.364673 49.46344,14.650298 86.74867,54.126572 97.08742,102.792712 0.54379,2.55968 1.4578,10.1383 2.03115,16.84137 0.92052,10.76194 0.97632,13.0153 0.47712,19.26567 -2.09027,26.17182 -10.75594,49.24038 -26.406,70.29443 -5.88615,7.91865 -19.10414,21.1932 -26.88219,26.99722 -9.79047,7.30571 -19.68074,13.10283 -29.40073,17.23307 l -4.94809,2.10255 -0.12647,24.91692 -0.12648,24.91693 H 386.3709 329.50518 Z m 104.95553,-80.42366 v -9.76312 h -44.42218 -44.42217 v 9.76312 9.76311 h 44.42217 44.42218 z m -34.24092,-58.75959 c 5.67671,-9.76497 10.32128,-17.89276 10.32128,-18.06176 0,-0.169 -9.44581,-0.30727 -20.9907,-0.30727 h -20.99069 v 1.49875 c 0,1.10268 2.72415,5.87584 10.30828,18.06177 5.66955,9.10965 10.47079,16.56301 10.66942,16.56301 0.19863,0 5.00571,-7.98952 10.68241,-17.7545 z m -48.30181,-39.79641 c 6.95396,-2.16432 11.91199,-7.08244 14.52149,-14.4046 1.06084,-2.97666 0.92504,-9.67266 -0.26562,-13.09737 -4.85241,-13.95704 -22.56233,-19.29671 -34.59264,-10.42994 -8.5388,6.29341 -11.20036,17.35692 -6.4815,26.94226 2.53553,5.15041 7.04754,8.99751 12.94386,11.03641 3.40329,1.17683 10.01459,1.15455 13.87441,-0.0468 z m 94.77857,-1.08939 c 14.67127,-6.98115 17.02121,-26.43328 4.39429,-36.37474 -11.33264,-8.92246 -28.1944,-4.99677 -34.34948,7.99711 -1.47645,3.11691 -1.56281,3.60942 -1.56281,8.91301 0,5.29004 0.0891,5.80184 1.54478,8.87448 2.65248,5.59881 7.35242,9.74968 13.22777,11.68246 2.17068,0.71407 3.95458,0.89259 7.9267,0.79323 4.74186,-0.11862 5.40214,-0.2598 8.81875,-1.88555 z"
         id="path11"
         transform="scale(0.26458333)" />
    </g>
  </g>
  <g
     id="layer3">
    <g
       id="g23">
      <rect
         style="fill:#ffffff;fill-opacity:1;stroke:#000000;stroke-width:0.181315;stroke-opacity:1"
         id="rect18"
         width="38.033043"
         height="41.472569"
         x="63.813046"
         y="79.395279" />
      <rect
         style="fill:#ffffff;fill-opacity:1;stroke:#000000;stroke-width:0.181315;stroke-opacity:1"
         id="rect19"
         width="38.033043"
         height="41.472569"
         x="101.59602"
         y="79.39566" />
      <rect
         style="fill:#ffffff;fill-opacity:1;stroke:#000000;stroke-width:0.181315;stroke-opacity:1"
         id="rect20"
         width="38.033043"
         height="41.472569"
         x="63.813046"
         y="120.67572" />
      <rect
         style="fill:#ffffff;fill-opacity:1;stroke:#000000;stroke-width:0.181315;stroke-opacity:1"
         id="rect21"
         width="38.033043"
         height="41.472569"
         x="101.59602"
         y="120.67566" />
      <rect
         style="fill:#ffffff;fill-opacity:1;stroke:#000000;stroke-width:0.264878;stroke-opacity:1"
         id="rect22"
         width="75.756729"
         height="26.313705"
         x="63.854607"
         y="162.36002" />
      <path
         style="fill:#ffffff;fill-opacity:1;stroke:#000000;stroke-width:0.262667;stroke-opacity:1"
         d="m 64.061575,188.98992 75.338275,0.005 -37.27837,33.78564 z"
         id="path23" />
    </g>
  </g>
  <g
     id="layer4">
    <g
       id="g27"
       transform="matrix(0.67926767,0,0,0.56101004,87.642612,54.534453)">
      <rect
         style="fill:#ffffff;fill-opacity:1;stroke:#000000;stroke-width:0.223125;stroke-opacity:1"
         id="rect25"
         width="13.700729"
         height="62.355137"
         x="-21.155413"
         y="72.83802"
         transform="matrix(0.93905258,0.34377357,-0.38340752,0.92357927,0,0)" />
      <rect
         style="fill:#ffffff;fill-opacity:1;stroke:#000000;stroke-width:0.223125;stroke-opacity:1"
         id="rect26"
         width="13.700729"
         height="62.355137"
         x="-72.063141"
         y="132.80336"
         transform="matrix(0.99980322,-0.01983715,-0.02271011,0.99974209,0,0)" />
      <path
         style="fill:#ffffff;fill-opacity:1;stroke:#000000;stroke-width:0.295765;stroke-opacity:1"
         id="path24"
         d="m -23.068184,52.51022 a 13.632442,14.835773 0 0 1 -13.080883,14.823625 13.632442,14.835773 0 0 1 -14.13937,-13.624117 13.632442,14.835773 0 0 1 11.936744,-15.926072 13.632442,14.835773 0 0 1 15.105276,12.335402" />
      <path
         style="fill:#ffffff;fill-opacity:1;stroke:#000000;stroke-width:0.295765;stroke-opacity:1"
         id="path26"
         d="m -54.024433,125.00606 a 13.632442,14.835773 0 0 1 -13.080883,14.82362 13.632442,14.835773 0 0 1 -14.139371,-13.62411 13.632442,14.835773 0 0 1 11.936744,-15.92608 13.632442,14.835773 0 0 1 15.105276,12.33541" />
      <rect
         style="fill:#ffffff;fill-opacity:1;stroke:#000000;stroke-width:0.206951;stroke-opacity:1"
         id="rect27"
         width="24.134714"
         height="12.493048"
         x="-80.99131"
         y="196.02744" />
    </g>
  </g>
  <g
     id="g34"
     transform="matrix(-1,0,0,1,204.14603,0.5291667)">
    <g
       id="g33"
       transform="matrix(0.67926767,0,0,0.56101004,88.171779,54.534453)">
      <rect
         style="fill:#ffffff;fill-opacity:1;stroke:#000000;stroke-width:0.223125;stroke-opacity:1"
         id="rect31"
         width="13.700729"
         height="62.355137"
         x="-21.155413"
         y="72.83802"
         transform="matrix(0.93905258,0.34377357,-0.38340752,0.92357927,0,0)" />
      <rect
         style="fill:#ffffff;fill-opacity:1;stroke:#000000;stroke-width:0.223125;stroke-opacity:1"
         id="rect32"
         width="13.700729"
         height="62.355137"
         x="-72.063141"
         y="132.80336"
         transform="matrix(0.99980322,-0.01983715,-0.02271011,0.99974209,0,0)" />
      <path
         style="fill:#ffffff;fill-opacity:1;stroke:#000000;stroke-width:0.295765;stroke-opacity:1"
         id="path32"
         d="m -23.068184,52.51022 a 13.632442,14.835773 0 0 1 -13.080883,14.823625 13.632442,14.835773 0 0 1 -14.13937,-13.624117 13.632442,14.835773 0 0 1 11.936744,-15.926072 13.632442,14.835773 0 0 1 15.105276,12.335402" />
      <path
         style="fill:#ffffff;fill-opacity:1;stroke:#000000;stroke-width:0.295765;stroke-opacity:1"
         id="path33"
         d="m -54.024433,125.00606 a 13.632442,14.835773 0 0 1 -13.080883,14.82362 13.632442,14.835773 0 0 1 -14.139371,-13.62411 13.632442,14.835773 0 0 1 11.936744,-15.92608 13.632442,14.835773 0 0 1 15.105276,12.33541" />
      <rect
         style="fill:#ffffff;fill-opacity:1;stroke:#000000;stroke-width:0.206951;stroke-opacity:1"
         id="rect33"
         width="24.134714"
         height="12.493048"
         x="-80.99131"
         y="196.02744" />
    </g>
  </g>
  <g
     id="layer5">
    <g
       id="g30">
      <rect
         style="fill:#ffffff;fill-opacity:1;stroke:#000000;stroke-width:0.169091;stroke-opacity:1"
         id="rect28"
         width="11.283515"
         height="43.482635"
         x="109.00001"
         y="196.62822"
         transform="matrix(0.99748343,0.07089994,-0.26598253,0.96397785,0,0)" />
      <rect
         style="fill:#ffffff;fill-opacity:1;stroke:#000000;stroke-width:0.167562;stroke-opacity:1"
         id="rect29"
         width="11.538941"
         height="41.754726"
         x="48.030483"
         y="245.38011"
         transform="matrix(0.99912508,-0.04182203,-0.01507253,0.9998864,0,0)" />
      <path
         style="fill:#ffffff;fill-opacity:1;stroke:#000000;stroke-width:0.222034;stroke-opacity:1"
         id="path29"
         d="m 75.126057,189.86273 a 11.479984,9.9285984 0 0 1 -11.015512,9.92047 11.479984,9.9285984 0 0 1 -11.906872,-9.11772 11.479984,9.9285984 0 0 1 10.052023,-10.65826 11.479984,9.9285984 0 0 1 12.720269,8.25527" />
      <path
         style="fill:#ffffff;fill-opacity:1;stroke:#000000;stroke-width:0.222034;stroke-opacity:1"
         id="path30"
         d="m 62.815899,238.64398 a 11.479984,9.9285984 0 0 1 -11.015512,9.92047 11.479984,9.9285984 0 0 1 -11.906872,-9.11772 11.479984,9.9285984 0 0 1 10.052023,-10.65826 11.479984,9.9285984 0 0 1 12.720269,8.25527" />
      <rect
         style="fill:#ffffff;fill-opacity:1;stroke:#000000;stroke-width:0.15536;stroke-opacity:1"
         id="rect30"
         width="20.324028"
         height="8.3607674"
         x="39.04855"
         y="283.7926" />
    </g>
  </g>
  <g
     id="g37">
    <g
       id="g36"
       transform="matrix(-1,0,0,1,200.99127,1.984375)">
      <rect
         style="fill:#ffffff;fill-opacity:1;stroke:#000000;stroke-width:0.169091;stroke-opacity:1"
         id="rect34"
         width="11.283515"
         height="43.482635"
         x="109.00001"
         y="196.62822"
         transform="matrix(0.99748343,0.07089994,-0.26598253,0.96397785,0,0)" />
      <rect
         style="fill:#ffffff;fill-opacity:1;stroke:#000000;stroke-width:0.167562;stroke-opacity:1"
         id="rect35"
         width="11.538941"
         height="41.754726"
         x="48.030483"
         y="245.38011"
         transform="matrix(0.99912508,-0.04182203,-0.01507253,0.9998864,0,0)" />
      <path
         style="fill:#ffffff;fill-opacity:1;stroke:#000000;stroke-width:0.222034;stroke-opacity:1"
         id="path35"
         d="m 75.126057,189.86273 a 11.479984,9.9285984 0 0 1 -11.015512,9.92047 11.479984,9.9285984 0 0 1 -11.906872,-9.11772 11.479984,9.9285984 0 0 1 10.052023,-10.65826 11.479984,9.9285984 0 0 1 12.720269,8.25527" />
      <path
         style="fill:#ffffff;fill-opacity:1;stroke:#000000;stroke-width:0.222034;stroke-opacity:1"
         id="path36"
         d="m 62.815899,238.64398 a 11.479984,9.9285984 0 0 1 -11.015512,9.92047 11.479984,9.9285984 0 0 1 -11.906872,-9.11772 11.479984,9.9285984 0 0 1 10.052023,-10.65826 11.479984,9.9285984 0 0 1 12.720269,8.25527" />
      <rect
         style="fill:#ffffff;fill-opacity:1;stroke:#000000;stroke-width:0.15536;stroke-opacity:1"
         id="rect36"
         width="20.324028"
         height="8.3607674"
         x="39.04855"
         y="283.7926" />
    </g>
  </g>
</svg>
